# xmcd
#
# Track frame offsets:
#	150
#	10625
#	27180
#	39650
#	49992
#	60490
#	68807
#	79152
#	93532
#	107920
#	120297
#	133815
#	144425
#	156770
#	170512
#	181505
#	191967
#	203710
#	214592
#	225525
#	240230
#	248827
#	263680
#	272810
#	285235
#	298472
#	311837
#	324655
#
# Disc length: 4497
#
# Revision: 1
# Processed by: cddbd v1.5.1PL0 Copyright (c) Steve Scherf et al.
# Submitted via: ExactAudioCopy v0.90b4
# Normalized: r0:DSETVAR2,TDELIM( - )
#
DISCID=90118f1c
DTITLE=Various Artist - Jimmy Martin, 1954 - 1974, Vol. 4
DYEAR=1994
DGENRE=Bluegrass
TTITLE0=I'm Coming Back But I Don't Know When - 1965
TTITLE1=In The Pines - 1965
TTITLE2=The Last Song - 1965
TTITLE3=Sweet Dixie - 1965
TTITLE4=Wild Indian - 1967
TTITLE5=Run Boy Run - 1966
TTITLE6=Theme Time - 1967
TTITLE7=Orange Blossom Special - 1967
TTITLE8=I Can't Quit Cigarettes - 1966
TTITLE9=Lost Highway - 1966
TTITLE10=The Good Things Out Weigh The Bad - 1966
TTITLE11=The Summer's Come And Gone - 1966
TTITLE12=Fraulein - 1966
TTITLE13=You're Gonna Change (Or I'm Gonna Leave) - 1966
TTITLE14=Tennessee Waltz - 1966
TTITLE15=Little Maggie, She's So Sweet - 1967
TTITLE16=Big Country - 1967
TTITLE17=Red Rooster - 1967
TTITLE18=Crow On The Banjo - 1967
TTITLE19=You Are My Sunshine - 1967
TTITLE20=Going Up Dry Branch - 1967
TTITLE21=Living Like A Fool - 1968
TTITLE22=Union County - 1967
TTITLE23=Uptown Blues - 1967
TTITLE24=Goin' Ape (Over You) - 1968
TTITLE25=Steal Away Somewhere And Die - 1968
TTITLE26=Freeborn Man - 1968
TTITLE27=Losing You - 1968
EXTD=
EXTT0=
EXTT1=
EXTT2=
EXTT3=
EXTT4=
EXTT5=
EXTT6=
EXTT7=
EXTT8=
EXTT9=
EXTT10=
EXTT11=
EXTT12=
EXTT13=
EXTT14=
EXTT15=
EXTT16=
EXTT17=
EXTT18=
EXTT19=
EXTT20=
EXTT21=
EXTT22=
EXTT23=
EXTT24=
EXTT25=
EXTT26=
EXTT27=
PLAYORDER=
